<?xml version="1.0" encoding="utf-8"?>
<!-- Generator: Adobe Illustrator 16.0.0, SVG Export Plug-In . SVG Version: 6.00 Build 0)  -->
<!DOCTYPE svg PUBLIC "-//W3C//DTD SVG 1.1//EN" "http://www.w3.org/Graphics/SVG/1.1/DTD/svg11.dtd">
<svg version="1.1" id="Layer_1" xmlns="http://www.w3.org/2000/svg" xmlns:xlink="http://www.w3.org/1999/xlink" x="0px" y="0px"
	 width="286.238px" height="201.376px" viewBox="0 0 286.238 201.376" enable-background="new 0 0 286.238 201.376"
	 xml:space="preserve">
<path fill="#79D1C0" stroke="#FFFFFF" stroke-width="2" stroke-miterlimit="10" d="M81.3,121.12c0,0-43.829-2.036-45.32-5.207
	c-2.453-5.215,3.174-8.797,7.547-8.129C47.897,108.452,81.3,121.12,81.3,121.12z"/>
<path fill="#79D1C0" stroke="#FFFFFF" stroke-width="2" stroke-miterlimit="10" d="M69.952,100.802
	c-4.27-1.342-35.803-4.439-39.703,0.814s-0.481,9.908,15.143,10.918c15.624,1.012,38.084,12.36,46.684,14.646
	c8.598,2.288,17.454,5.138,20.406,8.342c2.951,3.204,11.279,2.758,17.729,6.152c6.448,3.395,41.007,4.335,54.813,0.735
	c25.252-6.583,28.975-10.751,58.425-14.499c17.289-2.2,30.289-31.435-2.638-32.657c-28.393-1.055-43.836,7.068-59.92-2.274
	s-23.227-24.545-39.372-25.29c-16.147-0.749-34.058-5.151-40.419-6.322c-6.357-1.173-12.456,18.017,12.618,23.272
	c26.679,5.591,16.6,13,1.212,16.843c0,0-5.529,1.688-12.562-1.279"/>
<path fill="#79D1C0" stroke="#FFFFFF" stroke-width="2" stroke-miterlimit="10" d="M116.441,137.637
	c-7.872-4.81-15.991-14.497-22.415-18.06c-6.424-3.563-42.154-23.775-41.814-27.683c0.338-3.905,4.789-16.131,27.113-0.07"/>
<path fill="#79D1C0" stroke="#FFFFFF" stroke-width="2" stroke-miterlimit="10" d="M127.623,140.532
	c0,0-28.896-25.352-32.195-27.404c-3.3-2.054-21.612-13.973-20.265-17.724c1.349-3.751,9.578-12.963,28.826,6.385
	c13.099,13.164,30.67,13.039,42.719,27.096"/>
<g>
	<path d="M52.745,174.882c1.56,0.96,3.839,1.76,6.239,1.76c3.56,0,5.639-1.88,5.639-4.6c0-2.52-1.439-3.959-5.079-5.358
		c-4.399-1.561-7.119-3.84-7.119-7.639c0-4.2,3.479-7.319,8.718-7.319c2.76,0,4.759,0.64,5.959,1.32l-0.959,2.839
		c-0.88-0.479-2.68-1.279-5.119-1.279c-3.68,0-5.08,2.199-5.08,4.039c0,2.52,1.64,3.76,5.359,5.199
		c4.559,1.76,6.879,3.959,6.879,7.919c0,4.159-3.08,7.759-9.438,7.759c-2.6,0-5.439-0.761-6.879-1.72L52.745,174.882z"/>
	<path d="M75.024,170.083c0.08,4.759,3.119,6.719,6.639,6.719c2.52,0,4.04-0.44,5.359-1l0.6,2.52c-1.24,0.56-3.359,1.2-6.439,1.2
		c-5.959,0-9.519-3.92-9.519-9.759s3.439-10.438,9.079-10.438c6.319,0,7.999,5.56,7.999,9.119c0,0.72-0.08,1.279-0.12,1.64H75.024z
		 M85.342,167.563c0.04-2.24-0.919-5.72-4.879-5.72c-3.56,0-5.119,3.279-5.399,5.72H85.342z"/>
	<path d="M93.104,165.004c0-2-0.04-3.64-0.16-5.239h3.119l0.2,3.199h0.08c0.959-1.84,3.199-3.64,6.399-3.64
		c2.679,0,6.839,1.6,6.839,8.239v11.558h-3.52v-11.158c0-3.119-1.16-5.719-4.479-5.719c-2.319,0-4.119,1.64-4.719,3.6
		c-0.16,0.439-0.24,1.039-0.24,1.64v11.638h-3.52V165.004z"/>
	<path d="M119.223,154.325c0.04,1.2-0.84,2.16-2.24,2.16c-1.24,0-2.12-0.96-2.12-2.16c0-1.239,0.92-2.199,2.2-2.199
		C118.383,152.126,119.223,153.086,119.223,154.325z M115.304,179.121v-19.356h3.52v19.356H115.304z"/>
	<path d="M142.18,169.283c0,7.158-4.959,10.277-9.638,10.277c-5.239,0-9.279-3.839-9.279-9.958c0-6.479,4.239-10.278,9.599-10.278
		C138.421,159.324,142.18,163.363,142.18,169.283z M126.823,169.482c0,4.239,2.439,7.439,5.879,7.439c3.359,0,5.879-3.16,5.879-7.52
		c0-3.279-1.64-7.438-5.799-7.438S126.823,165.804,126.823,169.482z"/>
	<path d="M146.623,165.804c0-2.28-0.04-4.239-0.16-6.039h3.079l0.12,3.799h0.16c0.88-2.6,3-4.239,5.359-4.239
		c0.4,0,0.68,0.04,1,0.12v3.319c-0.359-0.08-0.721-0.12-1.199-0.12c-2.48,0-4.24,1.88-4.72,4.52c-0.08,0.479-0.16,1.04-0.16,1.64
		v10.318h-3.479V165.804z"/>
	<path d="M187.14,178.241c-1.28,0.64-3.839,1.28-7.119,1.28c-7.599,0-13.317-4.8-13.317-13.638c0-8.439,5.719-14.158,14.078-14.158
		c3.359,0,5.479,0.72,6.398,1.2l-0.84,2.839c-1.32-0.64-3.199-1.119-5.439-1.119c-6.318,0-10.518,4.039-10.518,11.118
		c0,6.599,3.799,10.838,10.357,10.838c2.12,0,4.279-0.44,5.68-1.12L187.14,178.241z"/>
	<path d="M201.82,179.121l-0.279-2.439h-0.12c-1.079,1.52-3.159,2.879-5.919,2.879c-3.92,0-5.919-2.759-5.919-5.559
		c0-4.68,4.159-7.239,11.638-7.199v-0.399c0-1.6-0.439-4.479-4.398-4.479c-1.801,0-3.68,0.561-5.039,1.439l-0.801-2.319
		c1.6-1.04,3.92-1.72,6.359-1.72c5.919,0,7.358,4.039,7.358,7.919v7.238c0,1.68,0.08,3.32,0.32,4.64H201.82z M201.301,169.243
		c-3.84-0.08-8.199,0.6-8.199,4.358c0,2.28,1.521,3.36,3.32,3.36c2.52,0,4.119-1.601,4.68-3.24c0.119-0.359,0.199-0.76,0.199-1.119
		V169.243z"/>
	<path d="M210.383,165.804c0-2.28-0.041-4.239-0.16-6.039h3.079l0.12,3.799h0.16c0.88-2.6,3-4.239,5.359-4.239
		c0.399,0,0.68,0.04,1,0.12v3.319c-0.36-0.08-0.721-0.12-1.2-0.12c-2.479,0-4.239,1.88-4.72,4.52c-0.08,0.479-0.16,1.04-0.16,1.64
		v10.318h-3.479V165.804z"/>
	<path d="M225.022,170.083c0.079,4.759,3.119,6.719,6.639,6.719c2.52,0,4.04-0.44,5.358-1l0.602,2.52c-1.24,0.56-3.36,1.2-6.439,1.2
		c-5.959,0-9.52-3.92-9.52-9.759s3.439-10.438,9.079-10.438c6.319,0,7.999,5.56,7.999,9.119c0,0.72-0.08,1.279-0.121,1.64H225.022z
		 M235.34,167.563c0.041-2.24-0.919-5.72-4.879-5.72c-3.559,0-5.119,3.279-5.398,5.72H235.34z"/>
</g>
<g>
	<path fill="#D14646" d="M99.487,11.959c-10.865-2.818-21.332,4.117-24.396,8.758c-3.062-4.641-13.528-11.576-24.395-8.758
		c-12.52,3.248-12.725,15.965-12.794,18.135C37.228,49.307,74.542,74.652,74.989,74.44h0.206
		c0.447,0.212,37.763-25.134,37.087-44.347C112.212,27.924,112.007,15.207,99.487,11.959z"/>
</g>
</svg>
