<?xml version="1.0" encoding="utf-8"?>
<!-- Generator: Adobe Illustrator 16.0.0, SVG Export Plug-In . SVG Version: 6.00 Build 0)  -->
<!DOCTYPE svg PUBLIC "-//W3C//DTD SVG 1.1//EN" "http://www.w3.org/Graphics/SVG/1.1/DTD/svg11.dtd">
<svg version="1.1" id="Layer_1" focusable="false" xmlns="http://www.w3.org/2000/svg" xmlns:xlink="http://www.w3.org/1999/xlink"
	 x="0px" y="0px" width="595.279px" height="841.891px" viewBox="0 0 595.279 841.891" enable-background="new 0 0 595.279 841.891"
	 xml:space="preserve">
<path d="M563.732,699.787l29.182-120.613c3.162-13.105-3.556-26.664-15.822-32.143l-129.62-57.182
	c-11.342-5.003-24.746-1.889-32.638,7.678l-58.409,69.844c-88.729-42.797-162.128-116.707-203.833-208.189l71.062-56.919
	c9.734-7.803,13.129-21.023,8.366-32.467l-54.428-130.801c-5.333-12.497-18.746-19.499-31.915-16.616L24.472,149.003
	c-12.587,2.773-21.772,13.838-21.911,26.976c-3.148,297.74,235.533,541.992,533.738,545.146
	C549.32,721.262,560.691,712.43,563.732,699.787z"/>
</svg>
